<svg id="Socilaal" xmlns="http://www.w3.org/2000/svg" viewBox="0 0 527.66 439"><defs><style>.cls-1,.cls-2{fill:none;stroke:#fff;stroke-miterlimit:10;}.cls-1{stroke-width:3px;}.cls-2{stroke-width:6px;}.cls-3{fill:#fff;}</style></defs><title>icon_social_white</title><path class="cls-1" d="M118.88,266.25A27.25,27.25,0,0,0,146.13,239H91.63a27.25,27.25,0,0,0,27.25,27.25Z" transform="translate(-0.01)"/><path class="cls-1" d="M408.84,266.25A27.25,27.25,0,0,1,381.63,239h54.5a27.25,27.25,0,0,1-27.25,27.25Z" transform="translate(-0.01)"/><path class="cls-2" d="M172.79,319.92c-8-20.11-18-36.91-29.34-49.19A51.25,51.25,0,1,0,65,260.28C29.57,287.19,4.16,355.43,3,436H194a380.66,380.66,0,0,0-3.76-48.66" transform="translate(-0.01)"/><path class="cls-2" d="M337.52,387.34A378.82,378.82,0,0,0,333.75,436H524.63c-1.11-80.57-26.53-148.81-61.92-175.72a51.25,51.25,0,1,0-78.48,10.45c-13,14.12-24.27,34.2-32.81,58.43" transform="translate(-0.01)"/><path class="cls-2" d="M294.79,211.63a51.25,51.25,0,1,0-78.47,10.44c-19.59,21.21-35.09,55.86-43.53,97.85,7.85,19.67,13.83,42.5,17.41,67.42H337.52a306.9,306.9,0,0,1,13.94-58.18C342.14,275,321.25,231.74,294.79,211.63Z" transform="translate(-0.01)"/><path class="cls-1" d="M240.88,217.59a27.25,27.25,0,0,1-27.25-27.25h54.5A27.25,27.25,0,0,1,240.88,217.59Z" transform="translate(-0.01)"/><path class="cls-3" d="M177.63,6a12,12,0,0,1,12,12v95a12,12,0,0,1-12,12h-34l8.17,34-34-34H82.63a12,12,0,0,1-12-12V18a12,12,0,0,1,12-12h95m0-6h-95a18,18,0,0,0-18,18v95a18,18,0,0,0,18,18h32.64l32.25,32.24,15,15.05-5-20.69L151.2,131h26.43a18,18,0,0,0,18-18V18A18,18,0,0,0,177.63,0Z" transform="translate(-0.01)"/><circle class="cls-3" cx="107.79" cy="69.44" r="3.84"/><circle class="cls-3" cx="153.44" cy="69.44" r="3.84"/><circle class="cls-3" cx="130.62" cy="69.44" r="3.84"/></svg>