<svg id="Techniek" xmlns="http://www.w3.org/2000/svg" viewBox="0 0 540.53 481.84"><defs><style>.cls-1,.cls-2,.cls-3{fill:none;stroke:#000;stroke-miterlimit:10;}.cls-1{stroke-width:6px;}.cls-3{stroke-width:3px;}</style></defs><title>Techniek</title><rect class="cls-1" x="359.4" y="589.17" width="155.99" height="58" rx="12" ry="12" transform="translate(-361.23 838.23) rotate(-90)"/><rect class="cls-1" x="425.39" y="499.29" width="24" height="58" rx="12" ry="12" transform="translate(-271.34 748.35) rotate(-90)"/><polygon class="cls-1" points="265.7 64.49 265.7 298.64 248.2 298.64 248.2 64.49 256.95 16.67 265.7 64.49"/><path d="M418.24,571.33q.87,29.61,1.17,59.2c.14,9.86.17,19.73.25,29.6l0,14.79c0,1.21,0,2.52,0,3.65a5.46,5.46,0,0,0,.85,2.77,5.83,5.83,0,0,0,2.11,2,5.73,5.73,0,0,0,2.81.66,5.65,5.65,0,0,0,4.79-2.88,5.73,5.73,0,0,0,.73-2.82v-3.7l0-14.8c.09-9.86.11-19.73.25-29.59q.3-29.61,1.17-59.2.88,29.6,1.17,59.2c.14,9.86.17,19.73.25,29.59l0,14.8v3.7a8.81,8.81,0,0,1-1.09,4.27A8.58,8.58,0,0,1,421.27,686a8.75,8.75,0,0,1-3.2-3.05,8.45,8.45,0,0,1-1.29-4.22c0-1.34,0-2.5,0-3.76l.05-14.79c.08-9.87.11-19.74.25-29.6Q417.38,600.93,418.24,571.33Z" transform="translate(-180.44 -217.33)"/><path d="M440.91,571.33q.87,29.61,1.17,59.2c.13,9.86.17,19.73.25,29.6l0,14.79c0,1.21,0,2.52,0,3.65a5.46,5.46,0,0,0,.85,2.77,5.65,5.65,0,0,0,9.71-.23,5.83,5.83,0,0,0,.73-2.82v-3.7l.05-14.8c.08-9.86.11-19.73.25-29.59q.3-29.61,1.17-59.2.87,29.6,1.17,59.2c.14,9.86.17,19.73.25,29.59l.05,14.8v3.7a8.6,8.6,0,0,1-12.7,7.66,8.83,8.83,0,0,1-3.2-3.05,8.54,8.54,0,0,1-1.28-4.22c0-1.34,0-2.5,0-3.76l0-14.79c.09-9.87.12-19.74.25-29.6Q440,600.93,440.91,571.33Z" transform="translate(-180.44 -217.33)"/><path d="M437.54,230c.24,4.92.4,9.83.6,14.75l.45,14.75c.13,4.92.52,9.83.3,14.75A116.68,116.68,0,0,1,437.54,289h-.3a116.68,116.68,0,0,1-1.35-14.75c-.22-4.92.17-9.83.3-14.75l.45-14.75c.2-4.92.36-9.83.6-14.75Z" transform="translate(-180.44 -217.33)"/><rect class="cls-1" x="206.01" y="589.17" width="155.99" height="58" rx="12" ry="12" transform="translate(-514.62 684.84) rotate(-90)"/><rect class="cls-1" x="272" y="499.29" width="24" height="58" rx="12" ry="12" transform="translate(-424.73 594.96) rotate(-90)"/><path d="M265.3,571.33q.85,29.61,1.16,59.2c.14,9.86.17,19.73.25,29.6l.05,14.79c0,1.21,0,2.52,0,3.65a5.46,5.46,0,0,0,.85,2.77,5.83,5.83,0,0,0,2.11,2,5.73,5.73,0,0,0,2.81.66,5.65,5.65,0,0,0,4.79-2.88,5.73,5.73,0,0,0,.73-2.82v-3.7l0-14.8c.09-9.86.12-19.73.25-29.59q.3-29.61,1.18-59.2.87,29.6,1.17,59.2c.14,9.86.16,19.73.25,29.59l0,14.8v3.7a8.58,8.58,0,0,1-15.9,4.61,8.34,8.34,0,0,1-1.28-4.22c0-1.34,0-2.5,0-3.76l.05-14.79c.08-9.87.11-19.74.25-29.6Q264.43,600.93,265.3,571.33Z" transform="translate(-180.44 -217.33)"/><path d="M288,571.33q.87,29.61,1.17,59.2c.14,9.86.17,19.73.25,29.6l.05,14.79c0,1.21,0,2.52,0,3.65a5.46,5.46,0,0,0,.85,2.77,5.57,5.57,0,0,0,4.92,2.65,5.66,5.66,0,0,0,4.79-2.88,5.73,5.73,0,0,0,.73-2.82v-3.7l0-14.8c.09-9.86.11-19.73.25-29.59q.3-29.61,1.17-59.2.87,29.6,1.17,59.2c.14,9.86.17,19.73.25,29.59l.05,14.8v3.7a8.81,8.81,0,0,1-1.09,4.27,8.65,8.65,0,0,1-7.31,4.43,8.77,8.77,0,0,1-4.31-1,8.91,8.91,0,0,1-3.2-3.05,8.54,8.54,0,0,1-1.28-4.22c0-1.34,0-2.5,0-3.76l.05-14.79c.08-9.87.11-19.74.25-29.6Q287.09,600.93,288,571.33Z" transform="translate(-180.44 -217.33)"/><rect class="cls-1" x="178.33" y="397.89" width="211.33" height="25.69" transform="translate(-307.18 477.4) rotate(-90)"/><path d="M377.48,235.5a12,12,0,0,1,12,12v51a12,12,0,0,1-12,12H364.81a12,12,0,0,1-12-12v-8.4H316.09v-.43a12,12,0,0,1-12,12H265.84a12,12,0,0,1-12-12v-2.83c-1.16,0-2.32-.09-3.49-.09-29.2,0-53.83,17.22-61.46,40.75a50,50,0,0,1-2.45-15.45c0-31,28.61-56.19,63.91-56.19,1.18,0,2.35,0,3.51.1a12,12,0,0,1,12-11.63h38.25a12,12,0,0,1,12,12v-.43h36.72v-8.4a12,12,0,0,1,12-12h12.67m0-6H364.81a18,18,0,0,0-18,18v2.4H320.9a18,18,0,0,0-16.81-11.57H265.84a18.17,18.17,0,0,0-16.77,11.54c-38,.61-68.63,28.27-68.63,62.18a55.88,55.88,0,0,0,2.74,17.3l5.71,17.59,5.71-17.59c6.78-20.93,28.6-35.72,53.51-36.56a18,18,0,0,0,17.73,14.88h38.25A18,18,0,0,0,320.9,296.1h25.91v2.4a18,18,0,0,0,18,18h12.67a18,18,0,0,0,18-18v-51a18,18,0,0,0-18-18Z" transform="translate(-180.44 -217.33)"/><path d="M263.71,271.83c0-2.37-.16-4.72-.07-7.11a14,14,0,0,1,.84-3.49,13.49,13.49,0,0,1,1.84-3.1,12.39,12.39,0,0,1,5.95-4,12.85,12.85,0,0,1,3.59-.54l3.55,0c4.73-.06,9.47-.05,14.2-.08a16.62,16.62,0,0,1,3.63.29,12.49,12.49,0,0,1,8.49,6.55,11.93,11.93,0,0,1,1.15,3.49,19.42,19.42,0,0,1,.18,3.63l0,7.1,0,7.1a12.42,12.42,0,0,1-7.4,11.65,12.2,12.2,0,0,1-3.5.95,30.69,30.69,0,0,1-3.58.07l-14.2-.25,14.2-.24a31.21,31.21,0,0,0,3.51-.14,11.57,11.57,0,0,0,3.31-1,11.75,11.75,0,0,0,5.07-4.52,10.94,10.94,0,0,0,1.33-3.15,12,12,0,0,0,.39-3.4l0-7.1,0-7.1a18.68,18.68,0,0,0-.19-3.46,11.06,11.06,0,0,0-1.08-3.21,11.68,11.68,0,0,0-4.63-4.87A11.83,11.83,0,0,0,297,254.7a14.86,14.86,0,0,0-3.43-.29c-4.73,0-9.47,0-14.2-.07l-3.55,0a12.3,12.3,0,0,0-3.42.44,12,12,0,0,0-5.75,3.69,11.76,11.76,0,0,0-2.78,6.31c-.11,1.16-.1,2.35-.12,3.53Z" transform="translate(-180.44 -217.33)"/><path class="cls-1" d="M605.6,243.89H707c4.25,0,7,2.25,7,9.5v86.75s3.5,0,4,8.75v63.5c0,7-1.75,17.5-14.5,21-35,10.5-61.25,45.25-71,69.25s-.5,86.5,6.25,133.25S626,696.17,605.47,696.17h-.08c-20.5,0-40-13.53-33.25-60.28s16-109.25,6.25-133.25-36-58.75-71-69.25c-12.75-3.5-14.5-14-14.5-21v-63.5c.5-8.75,4-8.75,4-8.75V253.39c0-7.25,2.75-9.5,7-9.5H605.6Z" transform="translate(-180.44 -217.33)"/><path d="M510.67,254c.62,7,.94,13.93,1.16,20.9.14,3.49.17,7,.25,10.45l.09,10.45-.08,10.46c-.09,3.48-.11,7-.25,10.45-.22,7-.55,13.93-1.17,20.9-.63-7-.95-13.94-1.17-20.9-.14-3.49-.17-7-.25-10.45l-.08-10.46.08-10.45c.08-3.48.11-7,.25-10.45C509.72,267.89,510.05,260.93,510.67,254Z" transform="translate(-180.44 -217.33)"/><path d="M527.67,254c.62,7,.94,13.93,1.16,20.9.14,3.49.17,7,.25,10.45l.09,10.45-.08,10.46c-.09,3.48-.11,7-.25,10.45-.22,7-.55,13.93-1.17,20.9-.63-7-.95-13.94-1.17-20.9-.14-3.49-.17-7-.25-10.45l-.08-10.46.08-10.45c.08-3.48.11-7,.25-10.45C526.72,267.89,527.05,260.93,527.67,254Z" transform="translate(-180.44 -217.33)"/><path d="M544.67,254c.62,7,.94,13.93,1.16,20.9.14,3.49.17,7,.25,10.45l.09,10.45-.08,10.46c-.09,3.48-.11,7-.25,10.45-.22,7-.55,13.93-1.17,20.9-.63-7-.95-13.94-1.17-20.9-.14-3.49-.17-7-.25-10.45l-.08-10.46.08-10.45c.08-3.48.11-7,.25-10.45C543.72,267.89,544.05,260.93,544.67,254Z" transform="translate(-180.44 -217.33)"/><path d="M561.67,254c.62,7,.94,13.93,1.16,20.9.14,3.49.17,7,.25,10.45l.09,10.45-.08,10.46c-.09,3.48-.11,7-.25,10.45-.22,7-.55,13.93-1.17,20.9-.63-7-.95-13.94-1.17-20.9-.14-3.49-.17-7-.25-10.45l-.08-10.46.08-10.45c.08-3.48.11-7,.25-10.45C560.72,267.89,561.05,260.93,561.67,254Z" transform="translate(-180.44 -217.33)"/><path d="M578.67,254c.62,7,.94,13.93,1.16,20.9.14,3.49.17,7,.25,10.45l.09,10.45-.08,10.46c-.09,3.48-.11,7-.25,10.45-.22,7-.55,13.93-1.17,20.9-.63-7-.95-13.94-1.17-20.9-.14-3.49-.17-7-.25-10.45l-.08-10.46.08-10.45c.08-3.48.11-7,.25-10.45C577.72,267.89,578.05,260.93,578.67,254Z" transform="translate(-180.44 -217.33)"/><path d="M595.67,254c.62,7,.94,13.93,1.16,20.9.14,3.49.17,7,.25,10.45l.09,10.45-.08,10.46c-.09,3.48-.11,7-.25,10.45-.22,7-.55,13.93-1.17,20.9-.63-7-.95-13.94-1.17-20.9-.14-3.49-.17-7-.25-10.45l-.08-10.46.08-10.45c.08-3.48.11-7,.25-10.45C594.72,267.89,595.05,260.93,595.67,254Z" transform="translate(-180.44 -217.33)"/><path d="M612.67,254c.62,7,.94,13.93,1.16,20.9.14,3.49.17,7,.25,10.45l.09,10.45-.08,10.46c-.09,3.48-.11,7-.25,10.45-.22,7-.55,13.93-1.17,20.9-.63-7-.95-13.94-1.17-20.9-.14-3.49-.17-7-.25-10.45l-.08-10.46.08-10.45c.08-3.48.11-7,.25-10.45C611.72,267.89,612.05,260.93,612.67,254Z" transform="translate(-180.44 -217.33)"/><path d="M629.67,254c.62,7,.94,13.93,1.16,20.9.14,3.49.17,7,.25,10.45l.09,10.45-.08,10.46c-.09,3.48-.11,7-.25,10.45-.22,7-.55,13.93-1.17,20.9-.63-7-.95-13.94-1.17-20.9-.14-3.49-.17-7-.25-10.45l-.08-10.46.08-10.45c.08-3.48.11-7,.25-10.45C628.72,267.89,629.05,260.93,629.67,254Z" transform="translate(-180.44 -217.33)"/><path d="M646.67,254c.62,7,.94,13.93,1.16,20.9.14,3.49.17,7,.25,10.45l.09,10.45-.08,10.46c-.09,3.48-.11,7-.25,10.45-.22,7-.55,13.93-1.17,20.9-.63-7-.95-13.94-1.17-20.9-.14-3.49-.17-7-.25-10.45l-.08-10.46.08-10.45c.08-3.48.11-7,.25-10.45C645.72,267.89,646.05,260.93,646.67,254Z" transform="translate(-180.44 -217.33)"/><path d="M663.67,254c.62,7,.94,13.93,1.16,20.9.14,3.49.17,7,.25,10.45l.09,10.45-.08,10.46c-.09,3.48-.11,7-.25,10.45-.22,7-.55,13.93-1.17,20.9-.63-7-.95-13.94-1.17-20.9-.14-3.49-.17-7-.25-10.45l-.08-10.46.08-10.45c.08-3.48.11-7,.25-10.45C662.72,267.89,663.05,260.93,663.67,254Z" transform="translate(-180.44 -217.33)"/><path d="M680.67,254c.62,7,.94,13.93,1.16,20.9.14,3.49.17,7,.25,10.45l.09,10.45-.08,10.46c-.09,3.48-.11,7-.25,10.45-.22,7-.55,13.93-1.17,20.9-.63-7-.95-13.94-1.17-20.9-.14-3.49-.17-7-.25-10.45l-.08-10.46.08-10.45c.08-3.48.11-7,.25-10.45C679.72,267.89,680.05,260.93,680.67,254Z" transform="translate(-180.44 -217.33)"/><path d="M697.67,254c.62,7,.94,13.93,1.16,20.9.14,3.49.17,7,.25,10.45l.09,10.45-.08,10.46c-.09,3.48-.11,7-.25,10.45-.22,7-.55,13.93-1.17,20.9-.63-7-.95-13.94-1.17-20.9-.14-3.49-.17-7-.25-10.45l-.08-10.46.08-10.45c.08-3.48.11-7,.25-10.45C696.72,267.89,697.05,260.93,697.67,254Z" transform="translate(-180.44 -217.33)"/><line class="cls-2" x1="313.89" y1="126" x2="534.56" y2="126"/><line class="cls-2" x1="323.56" y1="135.34" x2="526.22" y2="135.34"/><circle class="cls-3" cx="424.99" cy="437.96" r="19.84"/></svg>