<svg id="Socilaal" xmlns="http://www.w3.org/2000/svg" viewBox="0 0 527.71 439"><defs><style>.cls-1,.cls-2{fill:none;stroke:#000;stroke-miterlimit:10;}.cls-1{stroke-width:3px;}.cls-2{stroke-width:6px;}</style></defs><title>Sociaal</title><path class="cls-1" d="M473.25,347.25A27.25,27.25,0,0,0,500.5,320H446A27.25,27.25,0,0,0,473.25,347.25Z" transform="translate(-354.37 -81)"/><path class="cls-1" d="M763.21,347.25A27.25,27.25,0,0,1,736,320h54.5A27.25,27.25,0,0,1,763.21,347.25Z" transform="translate(-354.37 -81)"/><path class="cls-2" d="M527.16,400.92c-8-20.11-18-36.91-29.34-49.19a51.25,51.25,0,1,0-78.48-10.45c-35.4,26.91-60.81,95.15-61.92,175.72H548.33a380.65,380.65,0,0,0-3.76-48.66" transform="translate(-354.37 -81)"/><path class="cls-2" d="M691.89,468.34A378.81,378.81,0,0,0,688.12,517H879c-1.11-80.57-26.53-148.81-61.92-175.72a51.25,51.25,0,1,0-78.48,10.45c-13,14.12-24.27,34.2-32.81,58.43" transform="translate(-354.37 -81)"/><path class="cls-2" d="M649.16,292.63a51.25,51.25,0,1,0-78.47,10.44c-19.59,21.21-35.09,55.86-43.53,97.85,7.85,19.67,13.83,42.5,17.41,67.42H691.89a306.9,306.9,0,0,1,13.94-58.18C696.51,356,675.62,312.74,649.16,292.63Z" transform="translate(-354.37 -81)"/><path class="cls-1" d="M595.25,298.59A27.25,27.25,0,0,1,568,271.34h54.5A27.25,27.25,0,0,1,595.25,298.59Z" transform="translate(-354.37 -81)"/><path d="M532,87a12,12,0,0,1,12,12v95a12,12,0,0,1-12,12H498l8.17,34-34-34H437a12,12,0,0,1-12-12V99a12,12,0,0,1,12-12h95m0-6H437a18,18,0,0,0-18,18v95a18,18,0,0,0,18,18h32.64l32.25,32.24,15,15.05-5-20.69L505.57,212H532a18,18,0,0,0,18-18V99a18,18,0,0,0-18-18Z" transform="translate(-354.37 -81)"/><circle cx="107.8" cy="69.44" r="3.84"/><circle cx="153.45" cy="69.44" r="3.84"/><circle cx="130.63" cy="69.44" r="3.84"/></svg>