<svg id="Techniek" xmlns="http://www.w3.org/2000/svg" viewBox="0 0 540.56 481.84"><defs><style>.cls-1,.cls-3,.cls-4{fill:none;stroke:#fff;stroke-miterlimit:10;}.cls-1{stroke-width:6px;}.cls-2{fill:#fff;}.cls-4{stroke-width:3px;}</style></defs><title>icon_techniek_white</title><rect class="cls-1" x="227.94" y="322.84" width="58" height="155.99" rx="12" ry="12"/><path class="cls-1" d="M228,311h0a12,12,0,0,1,12-12h34a12,12,0,0,1,12,12h0a12,12,0,0,1-12,12H240A12,12,0,0,1,228,311Z" transform="translate(0 0)"/><polygon class="cls-1" points="265.7 64.49 265.7 298.64 248.2 298.64 248.2 64.49 256.95 16.67 265.7 64.49"/><path class="cls-2" d="M237.8,354q.87,29.61,1.17,59.2c.14,9.86.17,19.73.25,29.6v18.44a5.46,5.46,0,0,0,.85,2.77,5.83,5.83,0,0,0,2.11,2,5.73,5.73,0,0,0,2.81.66,5.65,5.65,0,0,0,4.79-2.88,5.73,5.73,0,0,0,.73-2.82v-18.5c.09-9.86.11-19.73.25-29.59q.3-29.61,1.17-59.2.88,29.6,1.17,59.2c.14,9.86.17,19.73.25,29.59V461a8.81,8.81,0,0,1-1.09,4.27,8.58,8.58,0,0,1-11.43,3.43,8.75,8.75,0,0,1-3.2-3,8.45,8.45,0,0,1-1.29-4.22v-3.76l0-14.79c.08-9.87.11-19.74.25-29.6Q236.94,383.6,237.8,354Z" transform="translate(0 0)"/><path class="cls-2" d="M260.47,354q.87,29.61,1.17,59.2c.13,9.86.17,19.73.25,29.6v18.44a5.46,5.46,0,0,0,.85,2.77,5.65,5.65,0,0,0,9.71-.23,5.83,5.83,0,0,0,.73-2.82v-3.7l0-14.8c.08-9.86.11-19.73.25-29.59q.3-29.61,1.17-59.2.87,29.6,1.17,59.2c.14,9.86.17,19.73.25,29.59l0,14.8V461a8.6,8.6,0,0,1-12.7,7.66,8.83,8.83,0,0,1-3.2-3,8.54,8.54,0,0,1-1.28-4.22V442.8c.09-9.87.12-19.74.25-29.6Q259.56,383.6,260.47,354Z" transform="translate(0 0)"/><path class="cls-2" d="M257.1,12.67c.24,4.92.4,9.83.6,14.75l.45,14.75c.13,4.92.52,9.83.3,14.75a116.68,116.68,0,0,1-1.35,14.75h-.3a116.68,116.68,0,0,1-1.35-14.75c-.22-4.92.17-9.83.3-14.75l.45-14.75c.2-4.92.36-9.83.6-14.75Z" transform="translate(0 0)"/><rect class="cls-1" x="74.55" y="322.84" width="58" height="155.99" rx="12" ry="12"/><path class="cls-1" d="M74.56,311h0a12,12,0,0,1,12-12h34a12,12,0,0,1,12,12h0a12,12,0,0,1-12,12h-34A12,12,0,0,1,74.56,311Z" transform="translate(0 0)"/><path class="cls-2" d="M84.86,354q.85,29.61,1.16,59.2c.14,9.86.17,19.73.25,29.6l0,14.79v3.65a5.46,5.46,0,0,0,.85,2.77,5.83,5.83,0,0,0,2.11,2,5.73,5.73,0,0,0,2.81.66,5.65,5.65,0,0,0,4.79-2.88,5.73,5.73,0,0,0,.73-2.82v-18.5c.09-9.86.12-19.73.25-29.59q.3-29.61,1.18-59.2.87,29.6,1.17,59.2c.14,9.86.16,19.73.25,29.59V461a8.58,8.58,0,0,1-15.9,4.61,8.34,8.34,0,0,1-1.28-4.22V457.6l0-14.79c.08-9.87.11-19.74.25-29.6Q84,383.6,84.86,354Z" transform="translate(0 0)"/><path class="cls-2" d="M107.56,354q.87,29.61,1.17,59.2c.14,9.86.17,19.73.25,29.6l0,14.79v3.65a5.46,5.46,0,0,0,.85,2.77,5.57,5.57,0,0,0,4.92,2.65,5.66,5.66,0,0,0,4.79-2.88,5.73,5.73,0,0,0,.73-2.82v-18.5c.09-9.86.11-19.73.25-29.59q.3-29.61,1.17-59.2.87,29.6,1.17,59.2c.14,9.86.17,19.73.25,29.59l0,14.8V461a8.81,8.81,0,0,1-1.09,4.27,8.65,8.65,0,0,1-7.31,4.43,8.77,8.77,0,0,1-4.31-1,8.91,8.91,0,0,1-3.2-3,8.54,8.54,0,0,1-1.28-4.22v-3.76l0-14.79c.08-9.87.11-19.74.25-29.6Q106.65,383.6,107.56,354Z" transform="translate(0 0)"/><rect class="cls-1" x="90.71" y="87.74" width="25.69" height="211.33"/><path class="cls-2" d="M197,18.17a12,12,0,0,1,12,12h0v51a12,12,0,0,1-12,12H184.37a12,12,0,0,1-12-12v-8.4H135.65v-.43a12,12,0,0,1-12,12H85.4a12,12,0,0,1-12-12V69.51c-1.16,0-2.32-.09-3.49-.09-29.2,0-53.83,17.22-61.46,40.75A50,50,0,0,1,6,94.72c0-31,28.61-56.19,63.91-56.19,1.18,0,2.35,0,3.51.1A12,12,0,0,1,85.42,27h38.25a12,12,0,0,1,12,12v-.43h36.72v-8.4a12,12,0,0,1,12-12h12.67m0-6H184.37a18,18,0,0,0-18,18v2.4H140.46A18,18,0,0,0,123.65,21H85.4A18.17,18.17,0,0,0,68.63,32.54C30.63,33.15,0,60.81,0,94.72A55.88,55.88,0,0,0,2.74,112l5.71,17.59L14.16,112c6.78-20.93,28.6-35.72,53.51-36.56A18,18,0,0,0,85.4,90.34h38.25a18,18,0,0,0,16.81-11.57h25.91v2.4a18,18,0,0,0,18,18H197a18,18,0,0,0,18-18v-51a18,18,0,0,0-18-18Z" transform="translate(0 0)"/><path class="cls-2" d="M83.27,54.5c0-2.37-.16-4.72-.07-7.11A14,14,0,0,1,84,43.9a13.49,13.49,0,0,1,1.84-3.1,12.39,12.39,0,0,1,6-4,12.85,12.85,0,0,1,3.59-.54H99c4.73-.06,9.47-.05,14.2-.08a16.62,16.62,0,0,1,3.63.29A12.49,12.49,0,0,1,125.29,43a11.93,11.93,0,0,1,1.15,3.49,19.42,19.42,0,0,1,.18,3.63v14.2A12.42,12.42,0,0,1,119.22,76a12.2,12.2,0,0,1-3.5,1,30.69,30.69,0,0,1-3.58.07l-14.2-.25,14.2-.24a31.21,31.21,0,0,0,3.51-.14,11.57,11.57,0,0,0,3.31-1A11.75,11.75,0,0,0,124,70.86a10.94,10.94,0,0,0,1.33-3.15,12,12,0,0,0,.39-3.4V50.11a18.68,18.68,0,0,0-.19-3.46,11.06,11.06,0,0,0-1.08-3.21,11.68,11.68,0,0,0-4.63-4.87,11.83,11.83,0,0,0-3.29-1.2,14.86,14.86,0,0,0-3.43-.29c-4.73,0-9.47,0-14.2-.07H95.38a12.3,12.3,0,0,0-3.42.44,12,12,0,0,0-5.75,3.69,11.76,11.76,0,0,0-2.78,6.31c-.11,1.16-.1,2.35-.12,3.53Z" transform="translate(0 0)"/><path class="cls-1" d="M425.16,26.56h101.4c4.25,0,7,2.25,7,9.5v86.75s3.5,0,4,8.75v63.5c0,7-1.75,17.5-14.5,21-35,10.5-61.25,45.25-71,69.25s-.5,86.5,6.25,133.25S445.56,478.84,425,478.84h-.08c-20.5,0-40-13.53-33.25-60.28s16-109.25,6.25-133.25-36-58.75-71-69.25c-12.75-3.5-14.5-14-14.5-21v-63.5c.5-8.75,4-8.75,4-8.75V36.06c0-7.25,2.75-9.5,7-9.5Z" transform="translate(0 0)"/><path class="cls-2" d="M330.23,36.67c.62,7,.94,13.93,1.16,20.9.14,3.49.17,7,.25,10.45l.09,10.45-.08,10.46c-.09,3.48-.11,7-.25,10.45-.22,7-.55,13.93-1.17,20.9-.63-7-1-13.94-1.17-20.9-.14-3.49-.17-7-.25-10.45l-.08-10.46L328.81,68c.08-3.48.11-7,.25-10.45C329.28,50.56,329.61,43.6,330.23,36.67Z" transform="translate(0 0)"/><path class="cls-2" d="M347.23,36.67c.62,7,.94,13.93,1.16,20.9.14,3.49.17,7,.25,10.45l.09,10.45-.08,10.46c-.09,3.48-.11,7-.25,10.45-.22,7-.55,13.93-1.17,20.9-.63-7-1-13.94-1.17-20.9-.14-3.49-.17-7-.25-10.45l-.08-10.46L345.81,68c.08-3.48.11-7,.25-10.45C346.28,50.56,346.61,43.6,347.23,36.67Z" transform="translate(0 0)"/><path class="cls-2" d="M364.23,36.67c.62,7,.94,13.93,1.16,20.9.14,3.49.17,7,.25,10.45l.09,10.45-.08,10.46c-.09,3.48-.11,7-.25,10.45-.22,7-.55,13.93-1.17,20.9-.63-7-1-13.94-1.17-20.9-.14-3.49-.17-7-.25-10.45l-.08-10.46L362.81,68c.08-3.48.11-7,.25-10.45C363.28,50.56,363.61,43.6,364.23,36.67Z" transform="translate(0 0)"/><path class="cls-2" d="M381.23,36.67c.62,7,.94,13.93,1.16,20.9.14,3.49.17,7,.25,10.45l.09,10.45-.08,10.46c-.09,3.48-.11,7-.25,10.45-.22,7-.55,13.93-1.17,20.9-.63-7-1-13.94-1.17-20.9-.14-3.49-.17-7-.25-10.45l-.08-10.46L379.81,68c.08-3.48.11-7,.25-10.45C380.28,50.56,380.61,43.6,381.23,36.67Z" transform="translate(0 0)"/><path class="cls-2" d="M398.23,36.67c.62,7,.94,13.93,1.16,20.9.14,3.49.17,7,.25,10.45l.09,10.45-.08,10.46c-.09,3.48-.11,7-.25,10.45-.22,7-.55,13.93-1.17,20.9-.63-7-1-13.94-1.17-20.9-.14-3.49-.17-7-.25-10.45l-.08-10.46L396.81,68c.08-3.48.11-7,.25-10.45C397.28,50.56,397.61,43.6,398.23,36.67Z" transform="translate(0 0)"/><path class="cls-2" d="M415.23,36.67c.62,7,.94,13.93,1.16,20.9.14,3.49.17,7,.25,10.45l.09,10.45-.08,10.46c-.09,3.48-.11,7-.25,10.45-.22,7-.55,13.93-1.17,20.9-.63-7-1-13.94-1.17-20.9-.14-3.49-.17-7-.25-10.45l-.08-10.46L413.81,68c.08-3.48.11-7,.25-10.45C414.28,50.56,414.61,43.6,415.23,36.67Z" transform="translate(0 0)"/><path class="cls-2" d="M432.23,36.67c.62,7,.94,13.93,1.16,20.9.14,3.49.17,7,.25,10.45l.09,10.45-.08,10.46c-.09,3.48-.11,7-.25,10.45-.22,7-.55,13.93-1.17,20.9-.63-7-1-13.94-1.17-20.9-.14-3.49-.17-7-.25-10.45l-.08-10.46L430.81,68c.08-3.48.11-7,.25-10.45C431.28,50.56,431.61,43.6,432.23,36.67Z" transform="translate(0 0)"/><path class="cls-2" d="M449.23,36.67c.62,7,.94,13.93,1.16,20.9.14,3.49.17,7,.25,10.45l.09,10.45-.08,10.46c-.09,3.48-.11,7-.25,10.45-.22,7-.55,13.93-1.17,20.9-.63-7-1-13.94-1.17-20.9-.14-3.49-.17-7-.25-10.45l-.08-10.46L447.81,68c.08-3.48.11-7,.25-10.45C448.28,50.56,448.61,43.6,449.23,36.67Z" transform="translate(0 0)"/><path class="cls-2" d="M466.23,36.67c.62,7,.94,13.93,1.16,20.9.14,3.49.17,7,.25,10.45l.09,10.45-.08,10.46c-.09,3.48-.11,7-.25,10.45-.22,7-.55,13.93-1.17,20.9-.63-7-1-13.94-1.17-20.9-.14-3.49-.17-7-.25-10.45l-.08-10.46L464.81,68c.08-3.48.11-7,.25-10.45C465.28,50.56,465.61,43.6,466.23,36.67Z" transform="translate(0 0)"/><path class="cls-2" d="M483.23,36.67c.62,7,.94,13.93,1.16,20.9.14,3.49.17,7,.25,10.45l.09,10.45-.08,10.46c-.09,3.48-.11,7-.25,10.45-.22,7-.55,13.93-1.17,20.9-.63-7-1-13.94-1.17-20.9-.14-3.49-.17-7-.25-10.45l-.08-10.46L481.81,68c.08-3.48.11-7,.25-10.45C482.28,50.56,482.61,43.6,483.23,36.67Z" transform="translate(0 0)"/><path class="cls-2" d="M500.23,36.67c.62,7,.94,13.93,1.16,20.9.14,3.49.17,7,.25,10.45l.09,10.45-.08,10.46c-.09,3.48-.11,7-.25,10.45-.22,7-.55,13.93-1.17,20.9-.63-7-1-13.94-1.17-20.9-.14-3.49-.17-7-.25-10.45l-.08-10.46L498.81,68c.08-3.48.11-7,.25-10.45C499.28,50.56,499.61,43.6,500.23,36.67Z" transform="translate(0 0)"/><path class="cls-2" d="M517.23,36.67c.62,7,.94,13.93,1.16,20.9.14,3.49.17,7,.25,10.45l.09,10.45-.08,10.46c-.09,3.48-.11,7-.25,10.45-.22,7-.55,13.93-1.17,20.9-.63-7-1-13.94-1.17-20.9-.14-3.49-.17-7-.25-10.45l-.08-10.46L515.81,68c.08-3.48.11-7,.25-10.45C516.28,50.56,516.61,43.6,517.23,36.67Z" transform="translate(0 0)"/><line class="cls-3" x1="313.89" y1="126" x2="534.56" y2="126"/><line class="cls-3" x1="323.56" y1="135.34" x2="526.22" y2="135.34"/><circle class="cls-4" cx="424.99" cy="437.96" r="19.84"/></svg>