<svg id="Geluid_feest" data-name="Geluid feest" xmlns="http://www.w3.org/2000/svg" viewBox="0 0 416.51 436.7"><defs><style>.cls-1,.cls-3,.cls-4{fill:none;}.cls-2{fill:#fff;}.cls-3,.cls-4{stroke:#fff;stroke-miterlimit:10;}.cls-4{stroke-width:3px;}</style></defs><title>icon_sound_white</title><path class="cls-1" d="M405.82,108.12c5.37,1.55,8.61,9,7.22,16.6l-54.9,297.41c-1.39,7.58-6.93,12.51-12.3,11" transform="translate(-0.03 0.01)"/><path class="cls-2" d="M347.83,436.37A10.14,10.14,0,0,1,345,436l1.67-5.76a4.54,4.54,0,0,0,3.78-.64c2.31-1.42,4.09-4.41,4.74-8l54.9-297.4c1.09-5.92-.9-10.81-5.57-13.85l3-5.2c8.15,4.07,10.17,10.91,8.47,20.14L361.09,422.7c-1,5.29-3.7,9.66-7.48,12A11,11,0,0,1,347.83,436.37Z" transform="translate(-0.03 0.01)"/><path class="cls-1" d="M242.26,426.78a10.93,10.93,0,0,1-3.11-.45l-.61-.17L125.48,332a22,22,0,0,1-9.39-21.85L157.09,52c1.58-8.9,7.77-15.3,14.64-15.3a10.89,10.89,0,0,1,2.83.37L308.67,51.28l.26.08c7.68,2.22,12.22,12,10.32,22.29l-62.37,337.9C255.28,420.37,249.12,426.78,242.26,426.78Z" transform="translate(-0.03 0.01)"/><path class="cls-1" d="M308.13,54.24,174,40a8.52,8.52,0,0,0-2.27-.32c-5.32,0-10.32,5.23-11.71,12.77L119,310.7c-1.59,8.61,3.63,16,8.2,18.86L240,423.49a8.17,8.17,0,0,0,2.28.33c5.31,0,10.31-5.24,11.7-12.78l62.37-337.9C317.92,64.49,314.23,56,308.13,54.24Z" transform="translate(-0.03 0.01)"/><path class="cls-2" d="M309.79,48.47l-.51-.14-.52-.06L175.09,34.11a14.11,14.11,0,0,0-3.36-.41h0c-8.45,0-15.69,7.27-17.61,17.68v.15l-41,258.17a25.07,25.07,0,0,0,10.55,24.68l112.44,93.68,1,.81,1.2.35a14.33,14.33,0,0,0,4,.56c8.44,0,15.68-7.28,17.6-17.69l62.37-337.9C324.4,62.41,318.94,51.12,309.79,48.47Zm6.54,24.63L254,411c-1.39,7.54-6.39,12.78-11.7,12.78a8.17,8.17,0,0,1-2.28-.33L127.24,329.52c-4.57-2.82-9.79-10.25-8.2-18.86L160,52.47c1.37-7.54,6.37-12.77,11.69-12.77A8.52,8.52,0,0,1,174,40L308.13,54.24C314.23,56,317.92,64.49,316.33,73.1Z" transform="translate(-0.03 0.01)"/><rect class="cls-2" x="356.18" y="23.96" width="6" height="112.51" transform="matrix(0.51, -0.86, 0.86, 0.51, 108.02, 349.25)"/><rect class="cls-2" x="294.67" y="378.08" width="6" height="104.24" transform="translate(-151.58 698.33) rotate(-86.15)"/><path class="cls-2" d="M301.17,104.2Q303,94,304.72,83.79c.55-3.4,1.12-6.81,1.58-10.23a29.52,29.52,0,0,0,.25-5.14,9.19,9.19,0,0,0-1.39-4.85A7,7,0,0,0,300.89,61a33.49,33.49,0,0,0-5.09-.8l-10.31-1-20.61-2-82.44-8.3c-1.71-.15-3.45-.45-5.12-.48a7.89,7.89,0,0,0-4.71,1.26,8.34,8.34,0,0,0-2.82,4,25.79,25.79,0,0,0-1.18,5l-3.22,20.46-6.54,40.91-13.18,81.76-13.31,81.78L129,304.05c-.28,1.71-.57,3.39-.77,5.11a46.85,46.85,0,0,0-.46,5.11,10.1,10.1,0,0,0,1,4.84,12.27,12.27,0,0,0,3.24,3.8c5.5,4.13,10.92,8.45,16.34,12.72l16.29,12.87,64.84,51.57c1.36,1.07,2.72,2.14,4.09,3.17a9.44,9.44,0,0,0,4.58,2,4.46,4.46,0,0,0,2.41-.46,6.29,6.29,0,0,0,2-1.57,17.92,17.92,0,0,0,2.62-4.38,68.54,68.54,0,0,0,3.2-9.81c.87-3.34,1.58-6.72,2.27-10.1,2.73-13.53,5.15-27.13,7.55-40.73-2.33,13.61-4.69,27.22-7.35,40.77-.68,3.38-1.38,6.77-2.23,10.12a66.78,66.78,0,0,1-3.16,9.88,18.09,18.09,0,0,1-2.64,4.48,6.91,6.91,0,0,1-2,1.67,4.92,4.92,0,0,1-2.61.51,9.87,9.87,0,0,1-4.79-2.06c-1.39-1-2.76-2.09-4.12-3.15-21.74-17-43.31-34.29-65-51.41L148,336.16c-5.44-4.27-10.82-8.54-16.37-12.7a12.85,12.85,0,0,1-3.44-4,10.91,10.91,0,0,1-1.09-5.19,44.84,44.84,0,0,1,.46-5.2c.19-1.71.48-3.43.76-5.13l3.29-20.45,13.11-81.79L158,119.92,164.67,79l3.27-20.45a26,26,0,0,1,1.23-5.1,9,9,0,0,1,3.07-4.32,8.59,8.59,0,0,1,5.09-1.43,22.23,22.23,0,0,1,2.61.21l2.57.28,82.42,8.51,20.6,2.13,10.3,1.07a34.29,34.29,0,0,1,5.13.84,7.29,7.29,0,0,1,4.4,2.67,9.48,9.48,0,0,1,1.41,5,32.14,32.14,0,0,1-.28,5.19c-.49,3.42-1.08,6.82-1.65,10.22Q303.1,94,301.17,104.2Z" transform="translate(-0.03 0.01)"/><ellipse class="cls-3" cx="235.16" cy="113.2" rx="24" ry="16" transform="matrix(0.14, -0.99, 0.99, 0.14, 89.96, 330.1)"/><ellipse class="cls-4" cx="227.68" cy="112.71" rx="40.5" ry="25.5" transform="translate(79.88 319.38) rotate(-80.77)"/><ellipse class="cls-3" cx="213.29" cy="272.11" rx="41.26" ry="27.51" transform="matrix(0.03, -1, 1, 0.03, -66.09, 475.83)"/><ellipse class="cls-4" cx="200.36" cy="272.59" rx="69.63" ry="43.84" transform="translate(-82.76 457.82) rotate(-86.88)"/><path class="cls-2" d="M137.13,40a44.34,44.34,0,0,0-44,12.81,43,43,0,0,0-8.41,13.48,44.23,44.23,0,0,0,20.16,55.07A43.45,43.45,0,0,1,92,111.7a44,44,0,0,1,29.12-73.34A43.32,43.32,0,0,1,137.13,40Z" transform="translate(-0.03 0.01)"/><path class="cls-2" d="M144.46,20.59A66.56,66.56,0,0,0,78.67,39.94,64.42,64.42,0,0,0,66.14,60.08a65.26,65.26,0,0,0-4.67,23.25A66.54,66.54,0,0,0,96,142.51,64.85,64.85,0,0,1,76.69,128,66,66,0,0,1,120.45,17.9,64.89,64.89,0,0,1,144.46,20.59Z" transform="translate(-0.03 0.01)"/><path class="cls-2" d="M144,3.64A82.49,82.49,0,0,0,86.67,10a80.78,80.78,0,0,0-39.45,99.4,82.32,82.32,0,0,0,37.38,44,79.17,79.17,0,0,1-23.88-17.7A80.38,80.38,0,0,1,45,110.25,81.1,81.1,0,0,1,114.52.2,79.21,79.21,0,0,1,144,3.64Z" transform="translate(-0.03 0.01)"/><path class="cls-2" d="M85.53,229.05A48.35,48.35,0,0,0,48,262.17a47.3,47.3,0,0,0-2,17.25,48.21,48.21,0,0,0,45.54,45,47.21,47.21,0,0,1-17.2-3.65,47.94,47.94,0,0,1,11.17-91.72Z" transform="translate(-0.03 0.01)"/><path class="cls-2" d="M83.72,206.43a72.11,72.11,0,0,0,8.95,142.95A70.58,70.58,0,0,1,66.84,344a72.56,72.56,0,0,1-22.17-14.54A71.78,71.78,0,0,1,83.72,206.43Z" transform="translate(-0.03 0.01)"/><path class="cls-2" d="M75.39,189.9a89.55,89.55,0,0,0-30,11.65,88.29,88.29,0,0,0-16.5,138A90,90,0,0,0,70.39,363a93.53,93.53,0,0,0,16,2.5A86.59,86.59,0,0,1,54.67,359a89.35,89.35,0,0,1-27.32-17.84A87.8,87.8,0,0,1,8.27,314.56a89,89,0,0,1-4.05-64.37,88.1,88.1,0,0,1,15.61-28.8,89.35,89.35,0,0,1,24.84-21.1A86.26,86.26,0,0,1,75.39,189.9Z" transform="translate(-0.03 0.01)"/></svg>